<svg width="266" height="100" viewBox="0 0 266 100" fill="none" xmlns="http://www.w3.org/2000/svg">
<path d="M3.125 50L26.5625 90.625L53.1758 90.625L61.7383 75.7812L35.1348 75.7812L20.2617 50L35.1348 24.2187L61.7383 24.2188L53.1758 9.375L26.5625 9.375L3.125 50Z" fill="#2475BC"/>
<path d="M64.8633 24.2187L79.7383 50L64.8633 75.7812L56.3008 90.625L73.4375 90.625L96.875 50L73.4375 9.375L56.3008 9.375L64.8633 24.2187Z" fill="#2475BC"/>
<path d="M131.864 62.336C128.76 62.336 125.928 61.616 123.368 60.176C120.808 58.704 118.776 56.672 117.272 54.08C115.8 51.456 115.064 48.512 115.064 45.248C115.064 41.984 115.8 39.056 117.272 36.464C118.776 33.84 120.808 31.808 123.368 30.368C125.928 28.896 128.76 28.16 131.864 28.16C135 28.16 137.848 28.896 140.408 30.368C142.968 31.808 144.984 33.824 146.456 36.416C147.928 39.008 148.664 41.952 148.664 45.248C148.664 48.544 147.928 51.488 146.456 54.08C144.984 56.672 142.968 58.704 140.408 60.176C137.848 61.616 135 62.336 131.864 62.336ZM131.864 58.544C134.2 58.544 136.296 58 138.152 56.912C140.04 55.824 141.512 54.272 142.568 52.256C143.656 50.24 144.2 47.904 144.2 45.248C144.2 42.56 143.656 40.224 142.568 38.24C141.512 36.224 140.056 34.672 138.2 33.584C136.344 32.496 134.232 31.952 131.864 31.952C129.496 31.952 127.384 32.496 125.528 33.584C123.672 34.672 122.2 36.224 121.112 38.24C120.056 40.224 119.528 42.56 119.528 45.248C119.528 47.904 120.056 50.24 121.112 52.256C122.2 54.272 123.672 55.824 125.528 56.912C127.416 58 129.528 58.544 131.864 58.544ZM172.046 62L164.078 48.32H158.798V62H154.43V28.544H165.23C167.758 28.544 169.886 28.976 171.614 29.84C173.374 30.704 174.686 31.872 175.55 33.344C176.414 34.816 176.846 36.496 176.846 38.384C176.846 40.688 176.174 42.72 174.83 44.48C173.518 46.24 171.534 47.408 168.878 47.984L177.278 62H172.046ZM158.798 44.816H165.23C167.598 44.816 169.374 44.24 170.558 43.088C171.742 41.904 172.334 40.336 172.334 38.384C172.334 36.4 171.742 34.864 170.558 33.776C169.406 32.688 167.63 32.144 165.23 32.144H158.798V44.816ZM188.002 32.096V43.28H200.194V46.88H188.002V58.4H201.634V62H183.634V28.496H201.634V32.096H188.002ZM212.515 28.544V49.712C212.515 52.688 213.235 54.896 214.675 56.336C216.147 57.776 218.179 58.496 220.771 58.496C223.331 58.496 225.331 57.776 226.771 56.336C228.243 54.896 228.979 52.688 228.979 49.712V28.544H233.347V49.664C233.347 52.448 232.787 54.8 231.667 56.72C230.547 58.608 229.027 60.016 227.107 60.944C225.219 61.872 223.091 62.336 220.723 62.336C218.355 62.336 216.211 61.872 214.291 60.944C212.403 60.016 210.899 58.608 209.779 56.72C208.691 54.8 208.147 52.448 208.147 49.664V28.544H212.515ZM251.242 62.336C249.034 62.336 247.05 61.952 245.29 61.184C243.562 60.384 242.202 59.296 241.21 57.92C240.218 56.512 239.706 54.896 239.674 53.072H244.33C244.49 54.64 245.13 55.968 246.25 57.056C247.402 58.112 249.066 58.64 251.242 58.64C253.322 58.64 254.954 58.128 256.138 57.104C257.354 56.048 257.962 54.704 257.962 53.072C257.962 51.792 257.61 50.752 256.906 49.952C256.202 49.152 255.322 48.544 254.266 48.128C253.21 47.712 251.786 47.264 249.994 46.784C247.786 46.208 246.01 45.632 244.666 45.056C243.354 44.48 242.218 43.584 241.258 42.368C240.33 41.12 239.866 39.456 239.866 37.376C239.866 35.552 240.33 33.936 241.258 32.528C242.186 31.12 243.482 30.032 245.146 29.264C246.842 28.496 248.778 28.112 250.954 28.112C254.09 28.112 256.65 28.896 258.634 30.464C260.65 32.032 261.786 34.112 262.042 36.704H257.242C257.082 35.424 256.41 34.304 255.226 33.344C254.042 32.352 252.474 31.856 250.522 31.856C248.698 31.856 247.21 32.336 246.058 33.296C244.906 34.224 244.33 35.536 244.33 37.232C244.33 38.448 244.666 39.44 245.338 40.208C246.042 40.976 246.89 41.568 247.882 41.984C248.906 42.368 250.33 42.816 252.154 43.328C254.362 43.936 256.138 44.544 257.482 45.152C258.826 45.728 259.978 46.64 260.938 47.888C261.898 49.104 262.378 50.768 262.378 52.88C262.378 54.512 261.946 56.048 261.082 57.488C260.218 58.928 258.938 60.096 257.242 60.992C255.546 61.888 253.546 62.336 251.242 62.336Z" fill="#2475BC"/>
<path d="M121.478 69.454V70.786H116.024V75.016H120.452V76.348H116.024V82H114.386V69.454H121.478ZM126.462 70.534C126.15 70.534 125.886 70.426 125.67 70.21C125.454 69.994 125.346 69.73 125.346 69.418C125.346 69.106 125.454 68.842 125.67 68.626C125.886 68.41 126.15 68.302 126.462 68.302C126.762 68.302 127.014 68.41 127.218 68.626C127.434 68.842 127.542 69.106 127.542 69.418C127.542 69.73 127.434 69.994 127.218 70.21C127.014 70.426 126.762 70.534 126.462 70.534ZM127.254 72.136V82H125.616V72.136H127.254ZM137.012 71.956C138.212 71.956 139.184 72.322 139.928 73.054C140.672 73.774 141.044 74.818 141.044 76.186V82H139.424V76.42C139.424 75.436 139.178 74.686 138.686 74.17C138.194 73.642 137.522 73.378 136.67 73.378C135.806 73.378 135.116 73.648 134.6 74.188C134.096 74.728 133.844 75.514 133.844 76.546V82H132.206V72.136H133.844V73.54C134.168 73.036 134.606 72.646 135.158 72.37C135.722 72.094 136.34 71.956 137.012 71.956ZM145.268 77.032C145.268 76.024 145.472 75.142 145.88 74.386C146.288 73.618 146.846 73.024 147.554 72.604C148.274 72.184 149.072 71.974 149.948 71.974C150.812 71.974 151.562 72.16 152.198 72.532C152.834 72.904 153.308 73.372 153.62 73.936V72.136H155.276V82H153.62V80.164C153.296 80.74 152.81 81.22 152.162 81.604C151.526 81.976 150.782 82.162 149.93 82.162C149.054 82.162 148.262 81.946 147.554 81.514C146.846 81.082 146.288 80.476 145.88 79.696C145.472 78.916 145.268 78.028 145.268 77.032ZM153.62 77.05C153.62 76.306 153.47 75.658 153.17 75.106C152.87 74.554 152.462 74.134 151.946 73.846C151.442 73.546 150.884 73.396 150.272 73.396C149.66 73.396 149.102 73.54 148.598 73.828C148.094 74.116 147.692 74.536 147.392 75.088C147.092 75.64 146.942 76.288 146.942 77.032C146.942 77.788 147.092 78.448 147.392 79.012C147.692 79.564 148.094 79.99 148.598 80.29C149.102 80.578 149.66 80.722 150.272 80.722C150.884 80.722 151.442 80.578 151.946 80.29C152.462 79.99 152.87 79.564 153.17 79.012C153.47 78.448 153.62 77.794 153.62 77.05ZM165.01 71.956C166.21 71.956 167.182 72.322 167.926 73.054C168.67 73.774 169.042 74.818 169.042 76.186V82H167.422V76.42C167.422 75.436 167.176 74.686 166.684 74.17C166.192 73.642 165.52 73.378 164.668 73.378C163.804 73.378 163.114 73.648 162.598 74.188C162.094 74.728 161.842 75.514 161.842 76.546V82H160.204V72.136H161.842V73.54C162.166 73.036 162.604 72.646 163.156 72.37C163.72 72.094 164.338 71.956 165.01 71.956ZM173.265 77.05C173.265 76.03 173.469 75.142 173.877 74.386C174.285 73.618 174.849 73.024 175.569 72.604C176.301 72.184 177.135 71.974 178.071 71.974C179.283 71.974 180.279 72.268 181.059 72.856C181.851 73.444 182.373 74.26 182.625 75.304H180.861C180.693 74.704 180.363 74.23 179.871 73.882C179.391 73.534 178.791 73.36 178.071 73.36C177.135 73.36 176.379 73.684 175.803 74.332C175.227 74.968 174.939 75.874 174.939 77.05C174.939 78.238 175.227 79.156 175.803 79.804C176.379 80.452 177.135 80.776 178.071 80.776C178.791 80.776 179.391 80.608 179.871 80.272C180.351 79.936 180.681 79.456 180.861 78.832H182.625C182.361 79.84 181.833 80.65 181.041 81.262C180.249 81.862 179.259 82.162 178.071 82.162C177.135 82.162 176.301 81.952 175.569 81.532C174.849 81.112 174.285 80.518 173.877 79.75C173.469 78.982 173.265 78.082 173.265 77.05ZM195.971 76.69C195.971 77.002 195.953 77.332 195.917 77.68H188.033C188.093 78.652 188.423 79.414 189.023 79.966C189.635 80.506 190.373 80.776 191.237 80.776C191.945 80.776 192.533 80.614 193.001 80.29C193.481 79.954 193.817 79.51 194.009 78.958H195.773C195.509 79.906 194.981 80.68 194.189 81.28C193.397 81.868 192.413 82.162 191.237 82.162C190.301 82.162 189.461 81.952 188.717 81.532C187.985 81.112 187.409 80.518 186.989 79.75C186.569 78.97 186.359 78.07 186.359 77.05C186.359 76.03 186.563 75.136 186.971 74.368C187.379 73.6 187.949 73.012 188.681 72.604C189.425 72.184 190.277 71.974 191.237 71.974C192.173 71.974 193.001 72.178 193.721 72.586C194.441 72.994 194.993 73.558 195.377 74.278C195.773 74.986 195.971 75.79 195.971 76.69ZM194.279 76.348C194.279 75.724 194.141 75.19 193.865 74.746C193.589 74.29 193.211 73.948 192.731 73.72C192.263 73.48 191.741 73.36 191.165 73.36C190.337 73.36 189.629 73.624 189.041 74.152C188.465 74.68 188.135 75.412 188.051 76.348H194.279Z" fill="#2475BC"/>
</svg>
