<svg width="376" height="252" viewBox="0 0 376 252" fill="none" xmlns="http://www.w3.org/2000/svg">
<g clip-path="url(#clip0)">
<path d="M376 133.934C376 184.906 343.69 228.337 298.436 244.862C291.551 247.381 284.445 249.246 277.211 250.433C257.309 253.697 236.904 251.844 217.916 245.048C172.375 228.659 139.829 185.082 139.851 133.909C139.851 68.7296 192.716 15.8683 257.925 15.8683C282.57 15.8324 306.603 23.542 326.627 37.9072C356.521 59.3237 376 94.3534 376 133.934Z" fill="#E5E5E5"/>
<path d="M298.436 244.862C291.551 247.381 284.445 249.246 277.211 250.433C257.309 253.697 236.904 251.844 217.916 245.048L223.369 223.17L223.698 221.857L234.826 221.9L290.729 222.101L291.444 224.215L298.436 244.862Z" fill="#2F2E41"/>
<path d="M102.564 0H0V116.046H102.564V0Z" fill="#E6E6E6"/>
<path d="M100.557 2.45508H1.8291V113.592H100.557V2.45508Z" fill="white"/>
<path d="M51.2822 109.64C54.3386 109.64 56.8163 107.162 56.8163 104.106C56.8163 101.05 54.3386 98.5723 51.2822 98.5723C48.2258 98.5723 45.748 101.05 45.748 104.106C45.748 107.162 48.2258 109.64 51.2822 109.64Z" fill="#E6E6E6"/>
<path d="M50.3475 41.7949H18.5615V45.0464H50.3475V41.7949Z" fill="#E6E6E6"/>
<path d="M66.5352 51.5381H18.5615V54.7895H66.5352V51.5381Z" fill="#3AB579"/>
<path d="M61.8262 61.3428H18.5615V64.5942H61.8262V61.3428Z" fill="#E6E6E6"/>
<path d="M85.3713 70.8882H18.5615V74.1396H85.3713V70.8882Z" fill="#3AB579"/>
<path d="M73.7043 79.979H19.2559V83.2305H73.7043V79.979Z" fill="#E6E6E6"/>
<path d="M145.843 188.831C146.233 189.231 146.591 189.662 146.913 190.119L197.044 188.892L202.892 178.206L220.174 184.924L211.659 204.847C210.971 206.457 209.779 207.8 208.263 208.674C206.747 209.549 204.988 209.909 203.25 209.699L146.61 202.857C145.274 204.548 143.455 205.793 141.394 206.425C139.334 207.057 137.129 207.047 135.075 206.396C133.02 205.745 131.212 204.484 129.892 202.78C128.571 201.077 127.801 199.011 127.683 196.859C127.565 194.707 128.105 192.57 129.231 190.733C130.357 188.895 132.016 187.444 133.988 186.572C135.959 185.7 138.149 185.449 140.266 185.852C142.384 186.255 144.328 187.293 145.841 188.828L145.843 188.831Z" fill="#FFB8B8"/>
<path d="M213.316 127.812L236.777 120.124L243.668 110.674L277.199 112.659L282.122 123.685L300.002 132.133L297.254 183.161L292.554 230.915C268.381 218.399 223.269 227.941 222.874 228.097L213.316 127.812Z" fill="#3AB579"/>
<path d="M218.332 196.88L194.469 187.333L194.57 186.909C194.673 186.479 204.829 144.041 206.178 137.221C207.583 130.116 212.715 128.152 212.933 128.072L213.092 128.013L222.536 130.888L226.684 163.474L218.332 196.88Z" fill="#3AB579"/>
<path d="M269.857 228.816C270.417 228.803 270.976 228.834 271.531 228.909L304.716 191.317L300.856 179.765L317.532 171.661L326.354 191.451C327.067 193.049 327.241 194.836 326.852 196.543C326.463 198.249 325.53 199.783 324.195 200.915L280.668 237.792C281 239.921 280.675 242.101 279.738 244.042C278.8 245.983 277.294 247.592 275.419 248.655C273.545 249.719 271.391 250.187 269.244 249.997C267.097 249.807 265.059 248.967 263.4 247.59C261.742 246.214 260.542 244.365 259.96 242.29C259.379 240.214 259.442 238.011 260.143 235.973C260.844 233.935 262.149 232.159 263.884 230.88C265.62 229.602 267.703 228.882 269.857 228.816V228.816Z" fill="#FFB8B8"/>
<path d="M302.068 194.976L288.225 162.416L293.624 139.737L299.441 132.387C299.867 132.205 300.327 132.114 300.79 132.118C301.253 132.122 301.711 132.222 302.133 132.413C304.28 133.276 306.105 135.922 307.564 140.278L320.537 177.229L302.068 194.976Z" fill="#3AB579"/>
<path d="M230.245 98.6096V74.0627C230.231 69.7431 231.068 65.463 232.708 61.4668C234.348 57.4705 236.759 53.8364 239.803 50.7719C242.848 47.7074 246.466 45.2725 250.451 43.6063C254.437 41.94 258.712 41.075 263.032 41.0607C267.352 41.0464 271.632 41.8831 275.629 43.5229C279.625 45.1627 283.259 47.5735 286.324 50.6178C289.389 53.6621 291.824 57.2801 293.49 61.2654C295.157 65.2507 296.022 69.5251 296.036 73.8447C296.036 73.9173 296.036 73.99 296.036 74.0627V98.6096C296.035 99.7811 295.569 100.904 294.74 101.732C293.912 102.561 292.789 103.027 291.617 103.028H234.664C233.493 103.027 232.369 102.561 231.541 101.732C230.713 100.904 230.247 99.7811 230.245 98.6096V98.6096Z" fill="#2F2E41"/>
<path d="M256.381 102.456C269.701 102.456 280.499 91.6593 280.499 78.3405C280.499 65.0216 269.701 54.2246 256.381 54.2246C243.061 54.2246 232.264 65.0216 232.264 78.3405C232.264 91.6593 243.061 102.456 256.381 102.456Z" fill="#FFB8B8"/>
<path d="M222.464 76.0263C222.472 69.1277 225.216 62.514 230.094 57.636C234.972 52.758 241.587 50.0141 248.486 50.0063H253.396C260.295 50.0141 266.909 52.758 271.787 57.636C276.666 62.514 279.41 69.1278 279.417 76.0263V76.5171H269.041L265.502 66.6068L264.794 76.5171H259.432L257.647 71.5176L257.289 76.5171H222.464V76.0263Z" fill="#2F2E41"/>
<path d="M254.009 105.789C253.522 105.129 253.231 104.346 253.169 103.528C253.108 102.71 253.279 101.892 253.663 101.167C258.865 91.2718 266.15 72.987 256.481 61.7107L255.788 60.9014H283.859V103.044L258.358 107.543C258.1 107.588 257.839 107.612 257.577 107.612C256.88 107.612 256.194 107.447 255.574 107.13C254.954 106.813 254.418 106.354 254.01 105.79L254.009 105.789Z" fill="#2F2E41"/>
<path d="M51.1929 9.03809C48.8653 9.03797 46.5899 9.72801 44.6546 11.0209C42.7192 12.3139 41.2107 14.1516 40.3199 16.3018C39.429 18.452 39.1959 20.8181 39.6498 23.1008C40.1038 25.3835 41.2245 27.4803 42.8703 29.1261C44.516 30.7719 46.6129 31.8928 48.8958 32.347C51.1786 32.8011 53.5448 32.5682 55.6953 31.6777C57.8457 30.7871 59.6838 29.279 60.977 27.3439C62.2702 25.4088 62.9606 23.1337 62.9607 20.8063V20.8056C62.9607 19.2603 62.6563 17.7301 62.0649 16.3024C61.4734 14.8747 60.6066 13.5774 59.5138 12.4847C58.421 11.392 57.1236 10.5252 55.6958 9.93383C54.268 9.34246 52.7377 9.03808 51.1923 9.03809H51.1929ZM51.1929 12.568C51.8911 12.568 52.5736 12.7751 53.1541 13.1629C53.7347 13.5508 54.1872 14.1021 54.4544 14.7471C54.7215 15.3921 54.7915 16.1019 54.6553 16.7866C54.519 17.4714 54.1828 18.1004 53.6891 18.594C53.1954 19.0877 52.5664 19.4239 51.8816 19.5601C51.1968 19.6963 50.487 19.6264 49.8419 19.3592C49.1969 19.0921 48.6455 18.6396 48.2576 18.0591C47.8697 17.4786 47.6627 16.7962 47.6627 16.098C47.6627 15.1618 48.0346 14.2639 48.6966 13.6019C49.3587 12.9399 50.2566 12.568 51.1929 12.568V12.568ZM51.1929 29.5628C49.7982 29.5564 48.4261 29.2099 47.1956 28.5533C45.9652 27.8967 44.9135 26.9498 44.1318 25.7948C44.1885 23.4413 48.8392 22.1458 51.1929 22.1458C53.5465 22.1458 58.1972 23.4413 58.2539 25.7948C57.4714 26.949 56.4195 27.8952 55.1893 28.5517C53.959 29.2082 52.5873 29.5552 51.1929 29.5628Z" fill="#3AB579"/>
<path d="M51.3299 106.227C56.1781 97.3433 67.7924 91.7173 77.2931 96.7884C81.5695 99.0706 84.969 103.108 86.0481 107.879C87.3004 113.422 84.6616 118.708 81.9377 123.365C80.4592 125.892 78.8391 128.368 77.6154 131.035C76.3485 133.796 75.4429 136.987 76.3968 139.99C77.2555 142.696 79.4087 144.664 81.7666 146.111C84.3691 147.647 87.1371 148.883 90.0179 149.796C95.9479 151.768 102.203 152.577 108.439 152.179C111.539 151.968 114.612 151.471 117.621 150.695C120.82 149.879 123.96 148.845 127.166 148.047C132.517 146.718 138.618 146.057 143.693 148.727C148.623 151.322 150.829 156.748 151.511 162.027C152.771 171.775 148.906 181.891 141.927 188.717C138.579 191.992 134.365 194.698 129.776 195.805C125.772 196.771 120.63 196.709 117.444 193.716C113.888 190.375 114.724 185.019 117.549 181.494C121.153 176.997 127.26 175.917 132.71 175.808C138.909 175.683 145.103 176.606 151.299 176.032C154.323 175.797 157.29 175.081 160.089 173.912C162.55 172.83 164.794 171.311 166.714 169.43C170.539 165.714 173.118 160.764 174.401 155.617C175.946 149.427 175.609 142.922 174.41 136.705C173.771 133.499 172.948 130.333 171.946 127.221C171.532 125.908 169.458 126.47 169.875 127.792C173.568 139.5 175.627 153.038 168.492 163.908C165.54 168.518 160.941 171.828 155.632 173.165C149.457 174.699 142.978 173.941 136.701 173.713C130.732 173.495 124.178 173.73 119.061 177.206C114.864 180.057 111.928 185.48 113.197 190.6C114.42 195.537 119.165 198.042 123.911 198.427C128.891 198.833 133.791 197.162 137.973 194.549C146.672 189.113 152.456 179.553 153.667 169.418C154.298 164.137 153.656 158.448 151.261 153.655C149.999 151.06 148.034 148.871 145.591 147.336C143.154 145.842 140.339 145.107 137.513 144.847C131.091 144.256 124.921 146.46 118.829 148.147C115.717 149.049 112.527 149.658 109.302 149.965C106.171 150.225 103.022 150.173 99.9015 149.812C96.8049 149.447 93.7532 148.77 90.7929 147.791C87.892 146.894 85.1144 145.638 82.5248 144.053C80.2403 142.592 78.2645 140.5 78.1521 137.649C78.0301 134.557 79.5891 131.665 81.0718 129.059C84.0011 123.91 87.6196 118.874 88.3835 112.847C89.0526 107.574 86.9308 102.378 83.2669 98.617C81.4307 96.7082 79.2201 95.1991 76.7735 94.1842C74.327 93.1694 71.6972 92.6705 69.0489 92.719C63.6129 92.8747 58.4079 95.2385 54.4095 98.8688C52.4264 100.67 50.7576 102.79 49.4718 105.141C48.8095 106.354 50.6626 107.438 51.3256 106.224L51.3299 106.227Z" fill="#3F3D56"/>
</g>
<defs>
<clipPath id="clip0">
<rect width="376" height="252" fill="white"/>
</clipPath>
</defs>
</svg>
