<svg width="502" height="372" viewBox="0 0 502 372" fill="none" xmlns="http://www.w3.org/2000/svg">
<g clip-path="url(#clip0)">
<g opacity="0.1">
<path opacity="0.1" d="M401.957 263.554C401.957 263.554 366.12 258.894 392.846 316.98C392.846 316.98 417.203 306.527 418.173 282.951C418.37 278.363 416.88 273.862 413.985 270.3C411.09 266.739 406.991 264.364 402.465 263.627L401.957 263.554Z" fill="#3AB579"/>
<path opacity="0.1" d="M402.483 263.467C402.483 263.467 410.596 295.855 392.874 316.984" stroke="#535461" stroke-miterlimit="10"/>
<path opacity="0.1" d="M392.389 319.977C392.389 319.977 405.292 288.129 429.388 276.316C439.534 271.426 447.821 263.369 453.003 253.358C455.425 248.59 457.405 243.61 458.919 238.479" stroke="#535461" stroke-width="2" stroke-miterlimit="10"/>
<path opacity="0.1" d="M474.06 230.951C471.548 234.112 458.549 238.741 458.549 238.741C458.549 238.741 460.114 224.993 462.626 221.855C463.199 221.035 463.933 220.342 464.784 219.817C465.634 219.293 466.583 218.948 467.572 218.805C468.56 218.661 469.568 218.722 470.532 218.983C471.497 219.244 472.397 219.699 473.179 220.322C473.961 220.945 474.607 221.721 475.078 222.603C475.55 223.485 475.835 224.455 475.918 225.451C476.001 226.448 475.88 227.452 475.561 228.4C475.242 229.348 474.733 230.221 474.065 230.964L474.06 230.951Z" fill="#3AB579"/>
<path opacity="0.1" d="M469.599 255.993C465.773 257.281 452.357 254.078 452.357 254.078C452.357 254.078 461.12 243.41 464.945 242.122C465.872 241.742 466.866 241.556 467.868 241.576C468.869 241.596 469.855 241.822 470.766 242.239C471.677 242.656 472.492 243.255 473.162 244.001C473.832 244.746 474.342 245.621 474.661 246.571C474.98 247.522 475.101 248.528 475.016 249.527C474.932 250.527 474.643 251.498 474.168 252.381C473.694 253.264 473.043 254.04 472.257 254.661C471.471 255.283 470.567 255.736 469.599 255.993Z" fill="#3AB579"/>
<path opacity="0.1" d="M445.412 285.6C441.464 284.779 431.493 275.23 431.493 275.23C431.493 275.23 444.433 270.45 448.387 271.271C450.176 271.77 451.708 272.931 452.674 274.52C453.64 276.108 453.967 278.005 453.589 279.826C453.211 281.647 452.156 283.256 450.638 284.327C449.12 285.398 447.252 285.851 445.412 285.595V285.6Z" fill="#3AB579"/>
<path opacity="0.1" d="M422.076 303.874C418.045 303.732 406.605 296.011 406.605 296.011C406.605 296.011 418.557 289.101 422.588 289.247C424.437 289.436 426.144 290.321 427.365 291.723C428.586 293.125 429.229 294.939 429.164 296.799C429.099 298.658 428.33 300.423 427.014 301.736C425.698 303.049 423.933 303.812 422.076 303.87V303.874Z" fill="#3AB579"/>
<path opacity="0.1" d="M439.866 245.11C440.383 249.12 449.118 259.806 449.118 259.806C449.118 259.806 454.87 247.25 454.357 243.24C454.294 242.239 454.027 241.262 453.572 240.368C453.117 239.475 452.483 238.684 451.71 238.046C450.938 237.407 450.043 236.934 449.08 236.656C448.118 236.378 447.109 236.301 446.115 236.429C445.122 236.557 444.165 236.888 443.304 237.401C442.444 237.915 441.698 238.599 441.112 239.413C440.526 240.227 440.113 241.152 439.899 242.132C439.685 243.112 439.673 244.126 439.866 245.11V245.11Z" fill="#3AB579"/>
<path opacity="0.1" d="M412.843 266.849C414.531 270.515 426.062 278.098 426.062 278.098C426.062 278.098 427.801 264.392 426.112 260.727C425.752 259.791 425.205 258.939 424.503 258.224C423.802 257.509 422.961 256.945 422.034 256.568C421.106 256.191 420.111 256.008 419.11 256.032C418.109 256.055 417.124 256.283 416.215 256.703C415.306 257.123 414.492 257.725 413.825 258.472C413.157 259.219 412.649 260.095 412.333 261.047C412.017 261.998 411.899 263.004 411.987 264.003C412.075 265.002 412.366 265.972 412.843 266.853V266.849Z" fill="#3AB579"/>
<path opacity="0.1" d="M389.469 291.566C390.512 295.47 400.602 304.891 400.602 304.891C400.602 304.891 404.629 291.68 403.581 287.776C403.386 286.791 402.991 285.857 402.421 285.032C401.851 284.206 401.118 283.507 400.267 282.976C399.416 282.446 398.465 282.096 397.474 281.949C396.482 281.802 395.471 281.86 394.503 282.12C393.535 282.38 392.63 282.836 391.846 283.46C391.061 284.085 390.412 284.864 389.94 285.749C389.468 286.635 389.183 287.608 389.102 288.609C389.021 289.609 389.146 290.616 389.469 291.566Z" fill="#3AB579"/>
<path opacity="0.25" d="M474.06 230.951C471.548 234.112 458.549 238.741 458.549 238.741C458.549 238.741 460.114 224.993 462.626 221.855C463.199 221.035 463.933 220.342 464.784 219.817C465.634 219.293 466.583 218.948 467.572 218.805C468.56 218.661 469.568 218.722 470.532 218.983C471.497 219.244 472.397 219.699 473.179 220.322C473.961 220.945 474.607 221.721 475.078 222.603C475.55 223.485 475.835 224.455 475.918 225.451C476.001 226.448 475.88 227.452 475.561 228.4C475.242 229.348 474.733 230.221 474.065 230.964L474.06 230.951Z" fill="black"/>
<path opacity="0.25" d="M469.599 255.993C465.773 257.281 452.357 254.078 452.357 254.078C452.357 254.078 461.12 243.41 464.945 242.122C465.872 241.742 466.866 241.556 467.868 241.576C468.869 241.596 469.855 241.822 470.766 242.239C471.677 242.656 472.492 243.255 473.162 244.001C473.832 244.746 474.342 245.621 474.661 246.571C474.98 247.522 475.101 248.528 475.016 249.527C474.932 250.527 474.643 251.498 474.168 252.381C473.694 253.264 473.043 254.04 472.257 254.661C471.471 255.283 470.567 255.736 469.599 255.993Z" fill="black"/>
<path opacity="0.25" d="M445.412 285.6C441.464 284.779 431.493 275.23 431.493 275.23C431.493 275.23 444.433 270.45 448.387 271.271C450.176 271.77 451.708 272.931 452.674 274.52C453.64 276.108 453.967 278.005 453.589 279.826C453.211 281.647 452.156 283.256 450.638 284.327C449.12 285.398 447.252 285.851 445.412 285.595V285.6Z" fill="black"/>
<path opacity="0.25" d="M422.076 303.874C418.045 303.732 406.605 296.011 406.605 296.011C406.605 296.011 418.557 289.101 422.588 289.247C424.437 289.436 426.144 290.321 427.365 291.723C428.586 293.125 429.229 294.939 429.164 296.799C429.099 298.658 428.33 300.423 427.014 301.736C425.698 303.049 423.933 303.812 422.076 303.87V303.874Z" fill="black"/>
<path opacity="0.25" d="M439.866 245.11C440.383 249.12 449.118 259.806 449.118 259.806C449.118 259.806 454.87 247.25 454.357 243.24C454.294 242.239 454.027 241.262 453.572 240.368C453.117 239.475 452.483 238.684 451.71 238.046C450.938 237.407 450.043 236.934 449.08 236.656C448.118 236.378 447.109 236.301 446.115 236.429C445.122 236.557 444.165 236.888 443.304 237.401C442.444 237.915 441.698 238.599 441.112 239.413C440.526 240.227 440.113 241.152 439.899 242.132C439.685 243.112 439.673 244.126 439.866 245.11V245.11Z" fill="black"/>
<path opacity="0.25" d="M412.843 266.849C414.531 270.515 426.062 278.098 426.062 278.098C426.062 278.098 427.801 264.392 426.112 260.727C425.752 259.791 425.205 258.939 424.503 258.224C423.802 257.509 422.961 256.945 422.034 256.568C421.106 256.191 420.111 256.008 419.11 256.032C418.109 256.055 417.124 256.283 416.215 256.703C415.306 257.123 414.492 257.725 413.825 258.472C413.157 259.219 412.649 260.095 412.333 261.047C412.017 261.998 411.899 263.004 411.987 264.003C412.075 265.002 412.366 265.972 412.843 266.853V266.849Z" fill="black"/>
<path opacity="0.25" d="M389.469 291.566C390.512 295.47 400.602 304.891 400.602 304.891C400.602 304.891 404.629 291.68 403.581 287.776C403.386 286.791 402.991 285.857 402.421 285.032C401.851 284.206 401.118 283.507 400.267 282.976C399.416 282.446 398.465 282.096 397.474 281.949C396.482 281.802 395.471 281.86 394.503 282.12C393.535 282.38 392.63 282.836 391.846 283.46C391.061 284.085 390.412 284.864 389.94 285.749C389.468 286.635 389.183 287.608 389.102 288.609C389.021 289.609 389.146 290.616 389.469 291.566Z" fill="black"/>
<path opacity="0.1" d="M409.575 334.466C409.575 334.466 422.479 302.619 446.574 290.805C456.716 285.911 464.998 277.854 470.176 267.843C472.597 263.075 474.578 258.095 476.092 252.964" stroke="#535461" stroke-width="2" stroke-miterlimit="10"/>
<path opacity="0.1" d="M491.224 245.431C488.712 248.593 475.712 253.221 475.712 253.221C475.712 253.221 477.277 239.474 479.789 236.335C481.036 234.947 482.765 234.087 484.623 233.932C486.481 233.777 488.329 234.338 489.788 235.5C491.248 236.662 492.209 238.338 492.477 240.186C492.744 242.034 492.298 243.915 491.228 245.444L491.224 245.431Z" fill="#3AB579"/>
<path opacity="0.1" d="M486.772 270.473C482.946 271.761 469.53 268.558 469.53 268.558C469.53 268.558 478.293 257.89 482.118 256.603C483.915 256.125 485.827 256.35 487.465 257.233C489.102 258.115 490.343 259.589 490.935 261.354C491.527 263.119 491.427 265.044 490.653 266.738C489.88 268.432 488.492 269.767 486.772 270.473V270.473Z" fill="#3AB579"/>
<path opacity="0.1" d="M462.584 300.098C458.636 299.278 448.665 289.729 448.665 289.729C448.665 289.729 461.605 284.949 465.559 285.769C467.347 286.269 468.88 287.43 469.846 289.019C470.812 290.607 471.139 292.504 470.761 294.325C470.383 296.145 469.328 297.754 467.81 298.826C466.292 299.897 464.424 300.35 462.584 300.094V300.098Z" fill="#3AB579"/>
<path opacity="0.1" d="M439.244 318.35C435.213 318.208 423.773 310.487 423.773 310.487C423.773 310.487 435.725 303.586 439.756 303.728C441.605 303.916 443.312 304.801 444.533 306.203C445.754 307.605 446.397 309.42 446.332 311.279C446.267 313.138 445.498 314.903 444.182 316.216C442.866 317.529 441.101 318.292 439.244 318.35V318.35Z" fill="#3AB579"/>
<path opacity="0.1" d="M457.034 259.609C457.551 263.618 466.286 274.304 466.286 274.304C466.286 274.304 472.038 261.749 471.525 257.739C471.462 256.738 471.195 255.76 470.74 254.867C470.285 253.973 469.651 253.183 468.878 252.544C468.106 251.906 467.211 251.433 466.248 251.155C465.286 250.877 464.277 250.799 463.283 250.928C462.29 251.056 461.333 251.387 460.472 251.9C459.612 252.413 458.865 253.098 458.28 253.912C457.694 254.725 457.281 255.651 457.067 256.631C456.853 257.611 456.841 258.624 457.034 259.609V259.609Z" fill="#3AB579"/>
<path opacity="0.1" d="M430.014 281.311C431.703 284.976 443.234 292.56 443.234 292.56C443.234 292.56 444.972 278.854 443.284 275.189C442.398 273.551 440.923 272.312 439.158 271.724C437.393 271.136 435.471 271.242 433.781 272.022C432.092 272.802 430.763 274.197 430.063 275.923C429.363 277.649 429.346 279.577 430.014 281.315V281.311Z" fill="#3AB579"/>
<path opacity="0.1" d="M406.643 306.055C407.686 309.96 417.775 319.381 417.775 319.381C417.775 319.381 421.802 306.17 420.754 302.266C420.155 300.505 418.91 299.038 417.271 298.162C415.632 297.286 413.722 297.067 411.928 297.549C410.134 298.03 408.589 299.177 407.608 300.757C406.627 302.336 406.281 304.231 406.643 306.055Z" fill="#3AB579"/>
</g>
<path opacity="0.1" d="M5.42285 197.027C13.3663 231.028 30.182 260.42 56.7576 274.666C111.986 304.273 236.541 289.004 329.501 271.458C376.471 262.625 419.105 238.221 450.542 202.173L5.42285 197.027Z" fill="#3AB579"/>
<path opacity="0.1" d="M492.894 36.9842H441.889C440.72 36.9842 439.599 36.519 438.772 35.691C437.945 34.863 437.48 33.74 437.48 32.5691C437.48 31.3981 437.945 30.2751 438.772 29.4471C439.599 28.6191 440.72 28.154 441.889 28.154H450.706C449.537 28.154 448.416 27.6888 447.589 26.8608C446.762 26.0328 446.298 24.9098 446.298 23.7389C446.298 22.5679 446.762 21.4449 447.589 20.6169C448.416 19.7889 449.537 19.3238 450.706 19.3238H444.41C443.241 19.3238 442.12 18.8586 441.293 18.0306C440.466 17.2026 440.002 16.0796 440.002 14.9087C440.002 13.7377 440.466 12.6147 441.293 11.7867C442.12 10.9587 443.241 10.4936 444.41 10.4936H471.032C465.125 7.74416 458.22 5.78749 450.267 4.76105C377.678 -4.57779 351.762 1.59922 342.619 7.96869C331.34 15.8045 318.757 21.5691 305.309 24.346C260.518 33.5886 176.759 44.7238 100.844 20.7718C63.1127 8.85767 35.0683 28.9834 18.2617 62.5995H501.748C501.117 52.8299 499.227 43.8119 495.759 35.9119C494.964 36.6021 493.947 36.9827 492.894 36.9842Z" fill="#3AB579"/>
<path opacity="0.1" d="M1.09378 126.061C-0.864388 145.836 -0.198168 165.784 3.07505 185.384L450.89 201.784C463.355 187.423 473.822 171.438 482.004 154.265L1.09378 126.061ZM178.21 168.379H169.393C170.562 168.379 171.683 168.844 172.51 169.672C173.337 170.5 173.801 171.623 173.801 172.794C173.801 173.965 173.337 175.088 172.51 175.916C171.683 176.744 170.562 177.209 169.393 177.209H118.387C117.218 177.209 116.097 176.744 115.27 175.916C114.443 175.088 113.979 173.965 113.979 172.794C113.979 171.623 114.443 170.5 115.27 169.672C116.097 168.844 117.218 168.379 118.387 168.379H127.205C126.035 168.379 124.914 167.913 124.087 167.085C123.26 166.257 122.796 165.134 122.796 163.963C122.796 162.793 123.26 161.67 124.087 160.842C124.914 160.014 126.035 159.548 127.205 159.548H120.908C119.739 159.548 118.618 159.083 117.791 158.255C116.964 157.427 116.5 156.304 116.5 155.133C116.5 153.962 116.964 152.839 117.791 152.011C118.618 151.183 119.739 150.718 120.908 150.718H171.914C173.083 150.718 174.204 151.183 175.031 152.011C175.858 152.839 176.322 153.962 176.322 155.133C176.322 156.304 175.858 157.427 175.031 158.255C174.204 159.083 173.083 159.548 171.914 159.548H178.21C179.379 159.548 180.501 160.014 181.327 160.842C182.154 161.67 182.619 162.793 182.619 163.963C182.619 165.134 182.154 166.257 181.327 167.085C180.501 167.913 179.379 168.379 178.21 168.379Z" fill="#3AB579"/>
<path opacity="0.1" d="M501.771 62.9065L12.8625 74.8206C6.91865 90.1303 2.99727 107.438 1.16699 125.378H493.206C496.418 114.839 498.794 104.063 500.312 93.15C501.776 82.606 502.362 72.4057 501.771 62.9065ZM100.423 101.934H91.6057C92.7749 101.934 93.8963 102.4 94.7231 103.228C95.5499 104.056 96.0144 105.179 96.0144 106.349C96.0144 107.52 95.5499 108.643 94.7231 109.471C93.8963 110.299 92.7749 110.765 91.6057 110.765H40.6004C39.4311 110.765 38.3097 110.299 37.483 109.471C36.6562 108.643 36.1917 107.52 36.1917 106.349C36.1917 105.179 36.6562 104.056 37.483 103.228C38.3097 102.4 39.4311 101.934 40.6004 101.934H49.4177C48.2485 101.934 47.1271 101.469 46.3003 100.641C45.4735 99.8132 45.0091 98.6903 45.0091 97.5193C45.0091 96.3483 45.4735 95.2253 46.3003 94.3973C47.1271 93.5694 48.2485 93.1042 49.4177 93.1042H43.1216C41.9523 93.1042 40.831 92.639 40.0042 91.811C39.1774 90.9831 38.7129 89.8601 38.7129 88.6891C38.7129 87.5181 39.1774 86.3951 40.0042 85.5672C40.831 84.7392 41.9523 84.274 43.1216 84.274H94.1269C95.2962 84.274 96.4175 84.7392 97.2443 85.5672C98.0711 86.3951 98.5356 87.5181 98.5356 88.6891C98.5356 89.8601 98.0711 90.9831 97.2443 91.811C96.4175 92.639 95.2962 93.1042 94.1269 93.1042H100.423C101.592 93.1042 102.714 93.5694 103.54 94.3973C104.367 95.2253 104.832 96.3483 104.832 97.5193C104.832 98.6903 104.367 99.8132 103.54 100.641C102.714 101.469 101.592 101.934 100.423 101.934V101.934Z" fill="#3AB579"/>
<path d="M429.512 371.766C429.512 371.766 409.123 259.774 370.243 241.6C337.298 226.19 301.672 215.801 291.541 212.983C290.028 210.543 288.28 208.258 286.32 206.16C272.474 191.684 264.155 191.955 262.81 192.134C262.172 189.263 261.713 186.355 261.437 183.427C261.396 182.969 261.355 182.543 261.318 182.089L261.437 182.029C261.355 181.163 261.282 180.27 261.218 179.349C266.87 176.328 272.074 172.532 276.679 168.072C276.739 168.269 276.789 168.466 276.853 168.667C286.831 160.221 296.603 151.545 306.17 142.64C308.915 140.069 311.798 137.278 312.731 133.654C313.03 132.406 313.146 131.122 313.074 129.841C313.198 127.092 312.548 124.283 312.438 121.497C312.438 121.038 312.489 120.612 312.548 120.177C313.189 115.617 316.355 111.874 318.954 108.047C325.447 98.378 328.836 86.9532 328.668 75.3019C328.739 69.7191 327.968 64.1575 326.38 58.8054C324.353 52.0144 320.135 44.8796 313.111 43.395C310.393 42.8222 307.57 43.1796 304.797 43.0009C293.316 42.2677 284.723 32.9197 275.567 26.0691C264.392 17.7485 251.177 12.6119 237.324 11.2039C232.999 10.7457 228.534 10.7136 224.42 12.0883C215.182 15.1677 209.572 24.6761 200.672 28.5848C194.092 31.49 186.488 31.018 179.624 33.1992C169.406 36.4527 160.735 46.9463 160.507 57.7286C160.507 58.1272 160.507 58.5259 160.507 58.9246C160.507 58.9933 160.507 59.062 160.507 59.1262C160.392 64.5746 162.337 70.1238 162.493 75.7006C162.493 76.2046 162.5 76.7102 162.515 77.2173C162.465 83.2385 161.747 89.2781 159.555 94.9373C158.374 97.9845 156.855 101.513 157.102 104.56C156.965 106.425 157.327 108.176 158.621 109.601L160.832 107.649C160.09 111.666 159.718 115.743 159.72 119.829C159.72 140.422 169.072 158.861 183.824 171.27C183.91 172.642 183.992 174.111 184.072 175.678C184.419 182.469 184.694 190.988 184.616 200.272L163.037 220.136L107.561 245.339C107.561 245.339 56.8259 256.071 67.7527 327.45L72.969 371.771H119.289L119.184 372.005H187.933L187.975 371.771H351.547L351.515 372.005H357.921V371.771L429.512 371.766ZM263.217 193.27C264.62 196.175 265.724 199.215 266.512 202.343C264.893 199.333 263.697 196.113 262.957 192.775L263.025 192.899L263.217 193.27ZM184.598 202.435C184.598 203.308 184.582 204.19 184.552 205.079L184.442 205.235C184.435 204.291 184.487 203.348 184.598 202.412V202.435Z" fill="url(#paint0_linear)"/>
<path d="M281.314 213.675L272.163 301.198L223.203 316.778C223.203 316.778 159.601 304.864 176.073 270.496C187.792 246.05 187.467 202.361 186.304 179.175C185.847 169.763 185.225 163.728 185.225 163.728C185.225 163.728 268.502 90.8682 261.639 156.396C260.312 169.084 260.234 179.005 260.971 186.758C264.059 219.037 281.314 213.675 281.314 213.675Z" fill="#FDC2CC"/>
<path opacity="0.03" d="M281.314 213.675L272.163 301.198L223.203 316.778C223.203 316.778 159.601 304.864 176.073 270.496C187.792 246.05 187.467 202.361 186.304 179.175C185.847 169.763 185.225 163.728 185.225 163.728C185.225 163.728 268.502 90.8682 261.639 156.396C260.312 169.084 260.234 179.005 260.971 186.758C264.059 219.037 281.314 213.675 281.314 213.675Z" fill="black"/>
<path opacity="0.1" d="M261.639 155.021C260.312 167.71 260.234 177.63 260.971 185.384C249.214 191.812 235.791 194.527 222.465 193.174C209.139 191.82 196.533 186.461 186.304 177.8C185.847 168.388 185.225 162.353 185.225 162.353C185.225 162.353 268.502 89.4934 261.639 155.021Z" fill="black"/>
<path d="M229.151 190.768C265.794 190.768 295.499 161.02 295.499 124.324C295.499 87.6277 265.794 57.8796 229.151 57.8796C192.509 57.8796 162.804 87.6277 162.804 124.324C162.804 161.02 192.509 190.768 229.151 190.768Z" fill="#FDC2CC"/>
<path opacity="0.03" d="M229.151 190.768C265.794 190.768 295.499 161.02 295.499 124.324C295.499 87.6277 265.794 57.8796 229.151 57.8796C192.509 57.8796 162.804 87.6277 162.804 124.324C162.804 161.02 192.509 190.768 229.151 190.768Z" fill="black"/>
<path opacity="0.1" d="M119.792 302.115C119.792 302.115 141.298 346.105 142.442 371.996Z" fill="black"/>
<path opacity="0.1" d="M354.068 327.322L347.891 372H354.068V327.322Z" fill="black"/>
<path opacity="0.1" d="M124.597 371.995L158.686 294.325C158.686 294.325 168.295 275.995 170.582 257.666C172.87 239.336 185.225 210.467 185.225 210.467C185.225 210.467 215.882 171.517 230.067 177.016C244.251 182.515 217.712 203.136 217.712 203.136C217.712 203.136 256.606 218.257 230.067 263.165C203.527 308.072 203.07 299.823 203.07 299.823L190.029 371.995H124.597Z" fill="black"/>
<path d="M123.682 371.995L157.771 294.325C157.771 294.325 167.38 275.995 169.667 257.666C171.122 246.013 176.645 230.098 180.475 220.049C182.975 213.479 186.653 207.423 191.329 202.178C201.24 191.07 219.241 173.158 229.152 177.007C243.336 182.506 216.797 203.127 216.797 203.127C216.797 203.127 255.691 218.248 229.152 263.155C202.612 308.063 202.155 299.814 202.155 299.814L189.114 371.986L123.682 371.995Z" fill="#FDC2CC"/>
<path opacity="0.15" d="M249.513 88.3522C250.271 88.3522 250.886 87.7367 250.886 86.9775C250.886 86.2183 250.271 85.6028 249.513 85.6028C248.755 85.6028 248.141 86.2183 248.141 86.9775C248.141 87.7367 248.755 88.3522 249.513 88.3522Z" fill="white"/>
<path opacity="0.15" d="M243.107 91.1017C243.865 91.1017 244.48 90.4862 244.48 89.727C244.48 88.9678 243.865 88.3523 243.107 88.3523C242.349 88.3523 241.734 88.9678 241.734 89.727C241.734 90.4862 242.349 91.1017 243.107 91.1017Z" fill="white"/>
<path opacity="0.1" d="M182.017 40.5905C188.638 38.4459 195.986 38.9087 202.337 36.0585C210.926 32.2002 216.339 22.8613 225.252 19.837C229.224 18.4898 233.534 18.5402 237.703 18.9709C251.107 20.368 263.873 25.4191 274.61 33.5749C283.446 40.3064 291.737 49.4848 302.815 50.2043C305.492 50.3784 308.214 50.0255 310.836 50.5892C317.627 52.0464 321.694 59.0528 323.648 65.7109C325.908 73.6016 326.438 81.8885 325.202 90.0035C323.965 98.1185 320.99 105.87 316.483 112.726C313.975 116.483 310.919 120.163 310.301 124.64C309.697 129.03 311.564 133.58 310.475 137.878C309.56 141.439 306.814 144.179 304.142 146.704C294.914 155.444 285.484 163.96 275.85 172.251C270.845 156.322 278.189 139.171 277.045 122.514C276.587 116.025 274.299 108.941 268.584 105.88C263.235 103.02 256.399 104.505 250.986 101.756C244.946 98.7085 242.466 91.4913 237.9 86.4965C230.121 77.9733 216.618 76.8735 205.742 80.7227C194.865 84.5719 185.975 92.4902 177.372 100.211L161.737 114.256C158.685 110.81 161 105.522 162.652 101.215C165.114 94.7585 165.654 87.7979 165.489 80.9427C165.356 75.4439 163.462 70.0138 163.572 64.6616C163.792 54.1038 172.156 43.7844 182.017 40.5905Z" fill="black"/>
<path d="M182.017 39.2157C188.638 37.0712 195.986 37.534 202.337 34.6838C210.926 30.8254 216.339 21.4866 225.252 18.4622C229.224 17.115 233.534 17.1654 237.703 17.5962C251.107 18.9933 263.873 24.0444 274.61 32.2001C283.446 38.9316 291.737 48.1101 302.815 48.8295C305.492 49.0036 308.214 48.6508 310.836 49.2144C317.627 50.6716 321.694 57.678 323.648 64.3362C325.908 72.2269 326.438 80.5137 325.202 88.6287C323.965 96.7437 320.99 104.495 316.483 111.351C313.975 115.109 310.919 118.788 310.301 123.265C309.697 127.655 311.564 132.205 310.475 136.504C309.56 140.064 306.814 142.804 304.142 145.329C294.914 154.069 285.484 162.585 275.85 170.876C270.845 154.948 278.189 137.796 277.045 121.139C276.587 114.65 274.299 107.566 268.584 104.505C263.235 101.646 256.399 103.13 250.986 100.381C244.946 97.3337 242.466 90.1165 237.9 85.1217C230.121 76.5986 216.618 75.4988 205.742 79.348C194.865 83.1971 185.975 91.1155 177.372 98.8367L161.737 112.882C158.685 109.436 161 104.148 162.652 99.8403C165.114 93.3837 165.654 86.4231 165.489 79.5679C165.356 74.0691 163.462 68.639 163.572 63.2868C163.792 52.7291 172.156 42.4096 182.017 39.2157Z" fill="#865A61"/>
</g>
<defs>
<linearGradient id="paint0_linear" x1="247.857" y1="371.996" x2="247.857" y2="10.8969" gradientUnits="userSpaceOnUse">
<stop stop-color="#808080" stop-opacity="0.25"/>
<stop offset="0.54" stop-color="#808080" stop-opacity="0.12"/>
<stop offset="1" stop-color="#808080" stop-opacity="0.1"/>
</linearGradient>
<clipPath id="clip0">
<rect width="502" height="372" fill="white"/>
</clipPath>
</defs>
</svg>
