<svg width="84" height="84" viewBox="0 0 84 84" fill="none" xmlns="http://www.w3.org/2000/svg">
<path d="M6.04067 44.3728C-5.50996 24.1847 -0.545715 -0.436091 -0.545715 -0.436091C-0.545715 -0.436091 23.1458 7.67436 34.6964 27.8624C46.2471 48.0504 41.2828 72.6713 41.2828 72.6713C41.2828 72.6713 17.5913 64.5608 6.04067 44.3728Z" fill="#3AB579"/>
<path d="M45.1589 5.25749C24.9708 -6.29315 0.35002 -1.3289 0.35002 -1.3289C0.35002 -1.3289 8.46047 22.3626 28.6485 33.9132C48.8366 45.4639 73.4574 40.4996 73.4574 40.4996C73.4574 40.4996 65.3469 16.8081 45.1589 5.25749Z" fill="#3AB579"/>
<path d="M41.917 15.571C18.6564 15.7884 -0.488732 -0.489142 -0.488732 -0.489142C-0.488732 -0.489142 18.0788 -17.1191 41.3394 -17.3365C64.6 -17.5539 83.7451 -1.27637 83.7451 -1.27637C83.7451 -1.27637 65.1775 15.3536 41.917 15.571Z" fill="#3F3D56"/>
<path d="M15.5702 41.9158C15.7876 18.6552 -0.48991 -0.489914 -0.48991 -0.489914C-0.48991 -0.489914 -17.1199 18.0777 -17.3373 41.3382C-17.5547 64.5988 -1.27714 83.7439 -1.27714 83.7439C-1.27714 83.7439 15.3528 65.1763 15.5702 41.9158Z" fill="#3F3D56"/>
</svg>
